<svg width="998.033" height="73.061" viewBox="0 0 998.033 73.061" xmlns="http://www.w3.org/2000/svg"><g id="svgGroup" stroke-linecap="round" fill-rule="evenodd" font-size="9pt" stroke="#ffffff" stroke-width="0.55mm" fill="#ffffff" style="stroke:#ffffff;stroke-width:0.55mm;fill:#ffffff"><path d="M 259.961 0.983 L 278.32 0.983 L 287.061 52.399 L 313.574 0.983 L 332.617 0.983 L 320.264 72.077 L 305.908 72.077 L 309.424 51.813 L 316.357 20.173 L 289.111 72.077 L 279.297 72.077 L 269.775 18.366 L 265.186 53.376 L 261.914 72.077 L 247.607 72.077 L 259.961 0.983 Z M 556.104 0.983 L 543.799 72.077 L 529.932 72.077 L 510.156 24.665 L 501.904 72.077 L 487.598 72.077 L 499.951 0.983 L 513.77 0.983 L 533.594 48.493 L 541.846 0.983 L 556.104 0.983 Z M 871.826 0.983 L 859.521 72.077 L 845.654 72.077 L 825.879 24.665 L 817.627 72.077 L 803.32 72.077 L 815.674 0.983 L 829.492 0.983 L 849.316 48.493 L 857.568 0.983 L 871.826 0.983 Z M 912.109 72.077 L 899.414 43.708 L 890.039 52.399 L 886.621 72.077 L 872.314 72.077 L 884.668 0.983 L 898.975 0.983 L 893.506 32.331 L 900.781 24.128 L 922.168 0.983 L 940.82 0.983 L 910.107 33.308 L 928.418 72.077 L 912.109 72.077 Z M 797.266 29.792 L 795.215 41.267 L 767.969 41.267 L 764.648 60.309 L 796.68 60.309 L 794.629 72.077 L 748.291 72.077 L 760.645 0.983 L 806.885 0.983 L 804.785 12.849 L 772.9 12.849 L 769.922 29.792 L 797.266 29.792 Z M 15.381 0.983 L 22.51 54.304 L 46.436 0.983 L 62.842 0.983 L 27.734 72.077 L 12.793 72.077 L 0 0.983 L 15.381 0.983 Z M 724.756 72.077 L 716.357 46.052 L 704.736 46.052 L 700.195 72.077 L 685.889 72.077 L 698.242 0.983 L 721.777 1.032 A 40.283 40.283 0 0 1 728.789 1.603 Q 735.635 2.815 739.966 6.599 Q 746.317 12.147 745.61 22.013 A 29.184 29.184 0 0 1 745.605 22.077 Q 744.743 34.395 734.283 40.394 A 32.273 32.273 0 0 1 729.98 42.438 L 739.99 71.296 L 739.99 72.077 L 724.756 72.077 Z M 208.74 0.983 L 217.383 32.917 L 237.256 0.983 L 253.662 0.983 L 222.607 47.077 L 218.311 72.077 L 203.76 72.077 L 208.398 45.466 L 193.652 1.032 L 208.74 0.983 Z M 101.904 72.077 L 99.658 57.429 L 74.854 57.429 L 67.529 72.077 L 51.758 72.077 L 89.746 0.983 L 102.979 0.983 L 116.504 72.077 L 101.904 72.077 Z M 664.16 72.077 L 661.914 57.429 L 637.109 57.429 L 629.785 72.077 L 614.014 72.077 L 652.002 0.983 L 665.234 0.983 L 678.76 72.077 L 664.16 72.077 Z M 385.01 72.077 L 357.715 72.077 L 370.068 0.983 L 392.236 1.032 A 49.244 49.244 0 0 1 399.029 1.496 Q 406.431 2.56 410.791 6.061 A 14.81 14.81 0 0 1 416.398 16.969 Q 416.457 17.74 416.457 18.546 A 23.631 23.631 0 0 1 416.406 20.075 A 16.508 16.508 0 0 1 409.005 33.093 A 27.138 27.138 0 0 1 403.955 35.847 Q 408.203 37.311 410.547 41.34 A 15.082 15.082 0 0 1 412.462 47.213 Q 412.667 48.938 412.549 50.837 Q 411.865 60.895 404.663 66.486 A 24.752 24.752 0 0 1 396.187 70.668 Q 392.645 71.681 388.421 71.966 A 50.739 50.739 0 0 1 385.01 72.077 Z M 145.605 72.077 L 123.633 72.077 L 135.986 0.983 L 156.396 1.032 A 29.845 29.845 0 0 1 164.412 2.248 A 26.046 26.046 0 0 1 169.312 4.279 Q 175.049 7.38 178.613 13.19 Q 182.178 19.001 182.91 26.276 A 41.638 41.638 0 0 1 183.084 30.091 A 44.622 44.622 0 0 1 182.812 34.968 L 182.471 37.556 A 47.123 47.123 0 0 1 179.063 50.045 A 37.548 37.548 0 0 1 170.19 62.629 Q 160.059 72.077 145.605 72.077 Z M 578.564 72.077 L 556.592 72.077 L 568.945 0.983 L 589.355 1.032 A 29.845 29.845 0 0 1 597.371 2.248 A 26.046 26.046 0 0 1 602.271 4.279 Q 608.008 7.38 611.572 13.19 Q 615.137 19.001 615.869 26.276 A 41.638 41.638 0 0 1 616.043 30.091 A 44.622 44.622 0 0 1 615.771 34.968 L 615.43 37.556 A 47.123 47.123 0 0 1 612.022 50.045 A 37.548 37.548 0 0 1 603.149 62.629 Q 593.018 72.077 578.564 72.077 Z M 441.634 72.037 A 27.64 27.64 0 0 0 448.682 73.054 A 34.238 34.238 0 0 0 449.332 73.06 A 30.075 30.075 0 0 0 463.013 69.88 A 30.017 30.017 0 0 0 468.479 66.339 A 35.364 35.364 0 0 0 474.561 59.919 Q 479.492 53.278 481.836 44.196 Q 484.18 35.114 483.691 26.52 A 40.46 40.46 0 0 0 483.217 22.197 A 32.689 32.689 0 0 0 480.176 12.726 A 26.824 26.824 0 0 0 479.371 11.251 A 21.998 21.998 0 0 0 471.729 3.4 A 22.59 22.59 0 0 0 465.906 0.928 A 27.875 27.875 0 0 0 459.18 0.007 A 34.153 34.153 0 0 0 458.539 0.001 A 30.17 30.17 0 0 0 444.653 3.278 A 30.059 30.059 0 0 0 438.925 7.088 A 36.006 36.006 0 0 0 432.959 13.581 A 42.033 42.033 0 0 0 429.85 18.589 A 48.05 48.05 0 0 0 425.732 29.548 Q 423.92 36.877 423.92 43.507 A 46.772 46.772 0 0 0 424.023 46.638 A 40.191 40.191 0 0 0 424.63 51.573 A 31.863 31.863 0 0 0 427.661 60.48 Q 430.811 66.511 436.206 69.709 A 22.981 22.981 0 0 0 441.634 72.037 Z M 955.892 72.037 A 27.64 27.64 0 0 0 962.939 73.054 A 34.238 34.238 0 0 0 963.589 73.06 A 30.075 30.075 0 0 0 977.271 69.88 A 30.017 30.017 0 0 0 982.737 66.339 A 35.364 35.364 0 0 0 988.818 59.919 Q 993.75 53.278 996.094 44.196 Q 998.438 35.114 997.949 26.52 A 40.46 40.46 0 0 0 997.475 22.197 A 32.689 32.689 0 0 0 994.434 12.726 A 26.824 26.824 0 0 0 993.629 11.251 A 21.998 21.998 0 0 0 985.986 3.4 A 22.59 22.59 0 0 0 980.164 0.928 A 27.875 27.875 0 0 0 973.438 0.007 A 34.153 34.153 0 0 0 972.797 0.001 A 30.17 30.17 0 0 0 958.911 3.278 A 30.059 30.059 0 0 0 953.183 7.088 A 36.006 36.006 0 0 0 947.217 13.581 A 42.033 42.033 0 0 0 944.108 18.589 A 48.05 48.05 0 0 0 939.99 29.548 Q 938.178 36.877 938.178 43.507 A 46.772 46.772 0 0 0 938.281 46.638 A 40.191 40.191 0 0 0 938.888 51.573 A 31.863 31.863 0 0 0 941.919 60.48 Q 945.068 66.511 950.464 69.709 A 22.981 22.981 0 0 0 955.892 72.037 Z M 468.604 37.214 L 468.945 34.577 L 469.336 29.938 Q 469.681 23.792 468.378 19.746 A 13.324 13.324 0 0 0 467.017 16.755 A 9.493 9.493 0 0 0 460.292 12.247 A 13.274 13.274 0 0 0 458.496 12.067 A 18.671 18.671 0 0 0 457.884 12.057 Q 449.38 12.057 444.312 19.977 A 31.734 31.734 0 0 0 440.907 27.385 Q 438.795 33.941 438.379 42.927 Q 438.013 49.395 439.48 53.634 A 13.964 13.964 0 0 0 440.674 56.232 A 9.447 9.447 0 0 0 447.352 60.884 A 13.269 13.269 0 0 0 449.316 61.091 Q 456.982 61.433 462.012 55.109 A 26.274 26.274 0 0 0 465.638 48.84 Q 466.919 45.774 467.753 42.032 A 57.644 57.644 0 0 0 468.604 37.214 Z M 982.861 37.214 L 983.203 34.577 L 983.594 29.938 Q 983.939 23.792 982.636 19.746 A 13.324 13.324 0 0 0 981.274 16.755 A 9.493 9.493 0 0 0 974.55 12.247 A 13.274 13.274 0 0 0 972.754 12.067 A 18.671 18.671 0 0 0 972.142 12.057 Q 963.637 12.057 958.569 19.977 A 31.734 31.734 0 0 0 955.165 27.385 Q 953.053 33.941 952.637 42.927 Q 952.271 49.395 953.738 53.634 A 13.964 13.964 0 0 0 954.932 56.232 A 9.447 9.447 0 0 0 961.609 60.884 A 13.269 13.269 0 0 0 963.574 61.091 Q 971.24 61.433 976.27 55.109 A 26.274 26.274 0 0 0 979.896 48.84 Q 981.177 45.774 982.01 42.032 A 57.644 57.644 0 0 0 982.861 37.214 Z M 156.055 12.897 L 148.242 12.849 L 139.99 60.309 L 145.947 60.358 A 21.738 21.738 0 0 0 153.707 59.024 A 19.258 19.258 0 0 0 161.792 53.132 A 24.92 24.92 0 0 0 165.748 46.203 Q 168.124 40.088 168.652 31.306 L 168.75 29.743 A 38.15 38.15 0 0 0 168.756 29.05 Q 168.756 21.5 165.674 17.39 A 10.857 10.857 0 0 0 159.055 13.251 A 16.444 16.444 0 0 0 156.055 12.897 Z M 589.014 12.897 L 581.201 12.849 L 572.949 60.309 L 578.906 60.358 A 21.738 21.738 0 0 0 586.666 59.024 A 19.258 19.258 0 0 0 594.751 53.132 A 24.92 24.92 0 0 0 598.707 46.203 Q 601.083 40.088 601.611 31.306 L 601.709 29.743 A 38.15 38.15 0 0 0 601.715 29.05 Q 601.715 21.5 598.633 17.39 A 10.857 10.857 0 0 0 592.014 13.251 A 16.444 16.444 0 0 0 589.014 12.897 Z M 710.498 12.849 L 706.787 34.186 L 717.432 34.284 A 18.294 18.294 0 0 0 721.707 33.733 A 13.359 13.359 0 0 0 726.782 31.232 A 11.872 11.872 0 0 0 731.038 24.134 A 15.598 15.598 0 0 0 731.201 23.2 Q 731.885 18.464 729.688 15.778 A 7.185 7.185 0 0 0 726.567 13.607 Q 725.402 13.171 723.966 12.997 A 15.905 15.905 0 0 0 722.705 12.897 L 710.498 12.849 Z M 390.918 41.169 L 377.441 41.12 L 374.072 60.309 L 385.352 60.358 A 17.592 17.592 0 0 0 389.492 59.894 A 13.035 13.035 0 0 0 394.189 57.746 A 10.347 10.347 0 0 0 398.415 50.829 A 12.842 12.842 0 0 0 398.437 50.69 A 15.745 15.745 0 0 0 398.585 49.415 Q 398.839 45.933 397.248 43.839 A 5.859 5.859 0 0 0 397.241 43.83 Q 395.681 41.784 392.357 41.301 A 14.427 14.427 0 0 0 390.918 41.169 Z M 93.848 19.099 L 80.713 45.563 L 97.852 45.563 L 93.848 19.099 Z M 656.104 19.099 L 642.969 45.563 L 660.107 45.563 L 656.104 19.099 Z M 382.324 12.849 L 379.199 30.768 L 388.916 30.866 A 20.327 20.327 0 0 0 392.703 30.463 Q 394.987 29.986 396.8 28.951 A 11.853 11.853 0 0 0 397.778 28.327 A 9.809 9.809 0 0 0 401.871 21.743 A 12.663 12.663 0 0 0 401.904 21.54 A 13.234 13.234 0 0 0 402.015 20.448 Q 402.452 12.943 392.871 12.897 L 382.324 12.849 Z"/></g></svg>